 <svg version="1.0" xmlns="http://www.w3.org/2000/svg"  width="300.000000pt" height="150.000000pt" viewBox="0 0 300.000000 150.000000"  preserveAspectRatio="xMidYMid meet">  <g transform="translate(0.000000,150.000000) scale(0.100000,-0.100000)" fill="#000000" stroke="none"> <path d="M2018 1466 c-24 -19 -61 -58 -81 -88 -71 -103 -70 -100 -76 -538 -6 -388 -6 -396 -29 -431 -39 -63 -127 -88 -192 -54 -50 26 -55 45 -60 255 l-5 195 -95 3 c-52 2 -137 0 -187 -3 l-93 -7 0 -148 c0 -81 5 -171 10 -200 40 -210 214 -343 428 -328 90 7 166 42 238 110 68 64 98 114 119 196 18 68 20 35 -39 601 -20 201 3 297 95 383 45 42 49 49 37 67 -7 12 -16 21 -19 21 -3 0 -26 -15 -51 -34z m6 -49 c-65 -73 -71 -83 -88 -140 -18 -63 -20 -143 -6 -272 5 -49 14 -133 20 -185 31 -309 32 -376 1 -447 -13 -28 -32 -60 -42 -69 -20 -18 -20 -14 -17 462 l3 479 28 58 c29 57 110 157 129 157 6 0 -7 -19 -28 -43z m-473 -626 c-11 -7 -10 -11 5 -19 18 -10 18 -11 1 -18 -17 -6 -17 -8 -1 -25 10 -11 12 -19 6 -19 -9 0 -12 -37 -12 -125 0 -77 4 -125 10 -125 6 0 10 -9 10 -20 0 -24 21 -70 32 -70 4 0 8 -7 8 -15 0 -23 38 -37 101 -38 51 0 64 4 97 30 20 16 44 43 52 59 15 28 15 27 18 -55 3 -74 0 -86 -18 -106 -29 -31 -132 -85 -171 -90 -18 -2 -36 -9 -40 -16 -17 -29 -248 18 -241 49 1 7 -3 12 -8 12 -22 0 -101 94 -132 157 l-33 68 0 175 0 175 25 2 c14 1 44 3 68 4 23 1 42 6 42 11 0 4 44 8 98 8 59 0 92 -4 83 -9z"/> <path d="M1355 742 c-22 -2 -44 -7 -49 -12 -10 -10 -10 -268 -1 -311 7 -29 47 -69 70 -69 9 0 12 -6 9 -15 -4 -8 -1 -15 6 -15 6 0 8 5 5 10 -3 6 0 10 7 10 7 0 -1 9 -19 20 -55 33 -63 62 -63 219 l0 140 52 3 c38 2 48 6 37 13 -8 6 -32 9 -54 7z"/> <path d="M1452 587 c-2 -145 5 -180 48 -234 29 -37 25 -20 -7 29 -27 39 -28 49 -34 192 l-5 151 -2 -138z"/> <path d="M1438 333 c12 -2 32 -2 45 0 12 2 2 4 -23 4 -25 0 -35 -2 -22 -4z"/> <path d="M37 1042 c-20 -22 -22 -73 -5 -90 8 -8 51 -12 129 -12 130 0 149 8 149 59 0 51 -24 61 -147 61 -94 0 -112 -3 -126 -18z m241 -36 c7 -33 -25 -46 -114 -46 -102 0 -114 4 -114 41 l0 30 112 -3 c102 -3 113 -5 116 -22z"/> <path d="M330 1000 l0 -61 148 3 147 3 -2 43 c-3 70 -8 72 -159 72 l-134 0 0 -60z m260 25 c0 -6 -45 -10 -115 -10 -70 0 -115 4 -115 10 0 6 45 10 115 10 70 0 115 -4 115 -10z m10 -50 c0 -12 -20 -15 -120 -15 -100 0 -120 3 -120 15 0 13 20 15 120 15 100 0 120 -2 120 -15z"/> <path d="M678 1048 c-20 -16 -28 -100 -10 -106 7 -2 12 5 12 17 0 20 5 21 119 21 113 0 120 -1 123 -20 5 -34 23 -23 26 16 2 21 -3 46 -13 60 -15 23 -20 24 -128 24 -75 0 -119 -4 -129 -12z m240 -35 c3 -10 -25 -13 -117 -13 -111 0 -133 5 -114 24 13 12 226 2 231 -11z"/> <path d="M973 1045 c-7 -20 4 -74 18 -92 14 -16 279 -19 279 -3 0 12 4 11 -131 10 -121 -1 -139 7 -139 66 0 35 -16 46 -27 19z"/> <path d="M1310 1040 c-25 -25 -29 -100 -5 -100 8 0 15 9 15 20 0 19 7 20 120 20 113 0 120 -1 120 -20 0 -12 7 -20 16 -20 14 0 16 8 11 47 -7 66 -21 73 -149 73 -95 0 -110 -2 -128 -20z m248 -27 c3 -10 -25 -13 -117 -13 -111 0 -133 5 -114 24 13 12 226 2 231 -11z"/> <path d="M1780 982 c0 -4 5 -13 11 -19 15 -15 3 -66 -14 -60 -7 2 -12 20 -12 41 0 32 -2 34 -12 19 -17 -22 -16 -38 3 -57 19 -19 33 -20 57 -2 22 17 22 49 -1 69 -20 18 -32 22 -32 9z"/> <path d="M2066 905 c-20 -20 -20 -29 0 -49 12 -13 40 -16 135 -16 73 0 119 -4 119 -10 0 -16 -237 -13 -243 3 -3 9 -8 9 -17 1 -9 -9 -6 -15 11 -28 33 -23 240 -23 263 -1 15 16 17 88 1 103 -3 4 -62 8 -129 10 -104 3 -126 1 -140 -13z m257 -27 c3 -10 -23 -12 -119 -10 -69 2 -124 7 -124 13 0 15 237 12 243 -3z"/> <path d="M2394 895 c-19 -20 -24 -34 -22 -62 3 -39 28 -60 28 -24 0 20 5 21 120 21 115 0 120 -1 120 -21 0 -36 25 -15 28 24 2 28 -3 42 -22 62 -23 23 -32 25 -126 25 -94 0 -103 -2 -126 -25z m230 -11 c41 -16 6 -24 -105 -24 -107 0 -120 2 -109 15 9 11 35 15 105 15 52 0 100 -3 109 -6z"/> <path d="M2694 909 c-8 -14 -7 -14 50 -37 l49 -19 -51 -18 c-29 -11 -52 -25 -52 -32 0 -17 2 -17 81 12 l68 24 62 -24 c73 -29 79 -30 79 -11 0 8 -22 22 -51 31 l-52 18 33 13 c18 8 38 14 46 14 16 0 27 17 20 29 -3 5 -36 -2 -73 -16 l-67 -24 -68 25 c-42 15 -70 21 -74 15z"/> <path d="M1750 819 c-29 -53 40 -96 74 -47 13 19 14 25 2 43 -19 29 -62 32 -76 4z m45 -24 c0 -20 -6 -31 -17 -33 -15 -3 -18 4 -18 33 0 29 3 36 18 33 11 -2 17 -13 17 -33z"/> <path d="M1761 691 c-25 -25 -27 -44 -5 -65 19 -19 33 -20 57 -1 24 17 19 53 -10 72 -19 13 -24 12 -42 -6z m34 -36 c0 -43 -29 -40 -33 3 -3 28 0 33 15 30 13 -2 18 -12 18 -33z"/> <path d="M150 606 c0 -2 8 -10 18 -17 15 -13 16 -12 3 4 -13 16 -21 21 -21 13z"/> <path d="M1160 279 c0 -6 14 -38 31 -70 38 -71 102 -132 173 -165 62 -28 203 -51 219 -35 6 6 9 11 6 11 -2 1 -31 2 -64 3 -39 2 -80 12 -118 30 -32 14 -63 25 -70 23 -7 -1 -9 -1 -6 1 3 2 -24 34 -61 71 -38 38 -73 83 -80 105 -13 35 -30 50 -30 26z m156 -190 c11 -19 -29 7 -51 32 l-20 23 32 -23 c18 -12 35 -27 39 -32z"/> </g> </svg> 